# Blender v2.91.0 OBJ File: ''
# www.blender.org
mtllib cylinder_112T.mtl
o Cylinder
v 0.000000 -1.000000 -1.000000
v 0.000000 1.000000 -1.000000
v 0.222521 -1.000000 -0.974928
v 0.222521 1.000000 -0.974928
v 0.433884 -1.000000 -0.900969
v 0.433884 1.000000 -0.900969
v 0.623490 -1.000000 -0.781831
v 0.623490 1.000000 -0.781831
v 0.781832 -1.000000 -0.623490
v 0.781832 1.000000 -0.623490
v 0.900969 -1.000000 -0.433884
v 0.900969 1.000000 -0.433884
v 0.974928 -1.000000 -0.222521
v 0.974928 1.000000 -0.222521
v 1.000000 -1.000000 -0.000000
v 1.000000 1.000000 -0.000000
v 0.974928 -1.000000 0.222521
v 0.974928 1.000000 0.222521
v 0.900969 -1.000000 0.433884
v 0.900969 1.000000 0.433884
v 0.781832 -1.000000 0.623490
v 0.781832 1.000000 0.623490
v 0.623490 -1.000000 0.781832
v 0.623490 1.000000 0.781832
v 0.433884 -1.000000 0.900969
v 0.433884 1.000000 0.900969
v 0.222521 -1.000000 0.974928
v 0.222521 1.000000 0.974928
v -0.000000 -1.000000 1.000000
v -0.000000 1.000000 1.000000
v -0.222521 -1.000000 0.974928
v -0.222521 1.000000 0.974928
v -0.433884 -1.000000 0.900969
v -0.433884 1.000000 0.900969
v -0.623490 -1.000000 0.781831
v -0.623490 1.000000 0.781831
v -0.781832 -1.000000 0.623489
v -0.781832 1.000000 0.623489
v -0.900969 -1.000000 0.433883
v -0.900969 1.000000 0.433883
v -0.974928 -1.000000 0.222520
v -0.974928 1.000000 0.222520
v -1.000000 -1.000000 -0.000001
v -1.000000 1.000000 -0.000001
v -0.974928 -1.000000 -0.222522
v -0.974928 1.000000 -0.222522
v -0.900968 -1.000000 -0.433885
v -0.900968 1.000000 -0.433885
v -0.781831 -1.000000 -0.623491
v -0.781831 1.000000 -0.623491
v -0.623489 -1.000000 -0.781832
v -0.623489 1.000000 -0.781832
v -0.433882 -1.000000 -0.900970
v -0.433882 1.000000 -0.900970
v -0.222519 -1.000000 -0.974928
v -0.222519 1.000000 -0.974928
vt 1.000000 0.500000
vt 1.000000 1.000000
vt 0.964286 1.000000
vt 0.964286 0.500000
vt 0.928571 1.000000
vt 0.928571 0.500000
vt 0.892857 1.000000
vt 0.892857 0.500000
vt 0.857143 1.000000
vt 0.857143 0.500000
vt 0.821429 1.000000
vt 0.821429 0.500000
vt 0.785714 1.000000
vt 0.785714 0.500000
vt 0.750000 1.000000
vt 0.750000 0.500000
vt 0.714286 1.000000
vt 0.714286 0.500000
vt 0.678572 1.000000
vt 0.678572 0.500000
vt 0.642857 1.000000
vt 0.642857 0.500000
vt 0.607143 1.000000
vt 0.607143 0.500000
vt 0.571429 1.000000
vt 0.571429 0.500000
vt 0.535715 1.000000
vt 0.535715 0.500000
vt 0.500000 1.000000
vt 0.500000 0.500000
vt 0.464286 1.000000
vt 0.464286 0.500000
vt 0.428572 1.000000
vt 0.428572 0.500000
vt 0.392857 1.000000
vt 0.392857 0.500000
vt 0.357143 1.000000
vt 0.357143 0.500000
vt 0.321429 1.000000
vt 0.321429 0.500000
vt 0.285714 1.000000
vt 0.285714 0.500000
vt 0.250000 1.000000
vt 0.250000 0.500000
vt 0.214286 1.000000
vt 0.214286 0.500000
vt 0.178572 1.000000
vt 0.178572 0.500000
vt 0.142857 1.000000
vt 0.142857 0.500000
vt 0.107143 1.000000
vt 0.107143 0.500000
vt 0.071429 1.000000
vt 0.071429 0.500000
vt 0.303405 0.483983
vt 0.250000 0.490000
vt 0.196595 0.483983
vt 0.145868 0.466233
vt 0.100363 0.437640
vt 0.062361 0.399638
vt 0.033768 0.354132
vt 0.016017 0.303405
vt 0.010000 0.250000
vt 0.016017 0.196595
vt 0.033767 0.145868
vt 0.062360 0.100363
vt 0.100362 0.062361
vt 0.145868 0.033768
vt 0.196595 0.016017
vt 0.250000 0.010000
vt 0.303405 0.016017
vt 0.354132 0.033767
vt 0.399638 0.062360
vt 0.437640 0.100362
vt 0.466233 0.145868
vt 0.483983 0.196595
vt 0.490000 0.250000
vt 0.483983 0.303405
vt 0.466233 0.354132
vt 0.437640 0.399638
vt 0.399638 0.437640
vt 0.354132 0.466233
vt 0.035714 1.000000
vt 0.035714 0.500000
vt 0.000000 1.000000
vt 0.000000 0.500000
vt 0.750000 0.490000
vt 0.803405 0.483983
vt 0.854132 0.466233
vt 0.899638 0.437640
vt 0.937640 0.399638
vt 0.966233 0.354132
vt 0.983983 0.303405
vt 0.990000 0.250000
vt 0.983983 0.196595
vt 0.966233 0.145868
vt 0.937640 0.100362
vt 0.899638 0.062360
vt 0.854132 0.033767
vt 0.803405 0.016017
vt 0.750000 0.010000
vt 0.696595 0.016017
vt 0.645868 0.033768
vt 0.600362 0.062361
vt 0.562360 0.100363
vt 0.533767 0.145868
vt 0.516017 0.196595
vt 0.510000 0.250000
vt 0.516017 0.303405
vt 0.533768 0.354132
vt 0.562361 0.399638
vt 0.600363 0.437640
vt 0.645868 0.466233
vt 0.696595 0.483983
vn 0.1120 0.0000 -0.9937
vn 0.3303 0.0000 -0.9439
vn 0.5320 0.0000 -0.8467
vn 0.7071 0.0000 -0.7071
vn 0.8467 0.0000 -0.5320
vn 0.9439 0.0000 -0.3303
vn 0.9937 0.0000 -0.1120
vn 0.9937 0.0000 0.1120
vn 0.9439 0.0000 0.3303
vn 0.8467 0.0000 0.5320
vn 0.7071 0.0000 0.7071
vn 0.5320 0.0000 0.8467
vn 0.3303 0.0000 0.9439
vn 0.1120 0.0000 0.9937
vn -0.1120 0.0000 0.9937
vn -0.3303 0.0000 0.9439
vn -0.5320 0.0000 0.8467
vn -0.7071 0.0000 0.7071
vn -0.8467 0.0000 0.5320
vn -0.9439 0.0000 0.3303
vn -0.9937 0.0000 0.1120
vn -0.9937 0.0000 -0.1120
vn -0.9439 0.0000 -0.3303
vn -0.8467 0.0000 -0.5320
vn -0.7071 0.0000 -0.7071
vn -0.5320 0.0000 -0.8467
vn 0.0000 1.0000 -0.0000
vn -0.3303 0.0000 -0.9439
vn -0.1120 0.0000 -0.9937
vn 0.0000 -1.0000 0.0000
usemtl None
s off
f 1/1/1 2/2/1 4/3/1 3/4/1
f 3/4/2 4/3/2 6/5/2 5/6/2
f 5/6/3 6/5/3 8/7/3 7/8/3
f 7/8/4 8/7/4 10/9/4 9/10/4
f 9/10/5 10/9/5 12/11/5 11/12/5
f 11/12/6 12/11/6 14/13/6 13/14/6
f 13/14/7 14/13/7 16/15/7 15/16/7
f 15/16/8 16/15/8 18/17/8 17/18/8
f 17/18/9 18/17/9 20/19/9 19/20/9
f 19/20/10 20/19/10 22/21/10 21/22/10
f 21/22/11 22/21/11 24/23/11 23/24/11
f 23/24/12 24/23/12 26/25/12 25/26/12
f 25/26/13 26/25/13 28/27/13 27/28/13
f 27/28/14 28/27/14 30/29/14 29/30/14
f 29/30/15 30/29/15 32/31/15 31/32/15
f 31/32/16 32/31/16 34/33/16 33/34/16
f 33/34/17 34/33/17 36/35/17 35/36/17
f 35/36/18 36/35/18 38/37/18 37/38/18
f 37/38/19 38/37/19 40/39/19 39/40/19
f 39/40/20 40/39/20 42/41/20 41/42/20
f 41/42/21 42/41/21 44/43/21 43/44/21
f 43/44/22 44/43/22 46/45/22 45/46/22
f 45/46/23 46/45/23 48/47/23 47/48/23
f 47/48/24 48/47/24 50/49/24 49/50/24
f 49/50/25 50/49/25 52/51/25 51/52/25
f 51/52/26 52/51/26 54/53/26 53/54/26
f 4/55/27 2/56/27 56/57/27 54/58/27 52/59/27 50/60/27 48/61/27 46/62/27 44/63/27 42/64/27 40/65/27 38/66/27 36/67/27 34/68/27 32/69/27 30/70/27 28/71/27 26/72/27 24/73/27 22/74/27 20/75/27 18/76/27 16/77/27 14/78/27 12/79/27 10/80/27 8/81/27 6/82/27
f 53/54/28 54/53/28 56/83/28 55/84/28
f 55/84/29 56/83/29 2/85/29 1/86/29
f 1/87/30 3/88/30 5/89/30 7/90/30 9/91/30 11/92/30 13/93/30 15/94/30 17/95/30 19/96/30 21/97/30 23/98/30 25/99/30 27/100/30 29/101/30 31/102/30 33/103/30 35/104/30 37/105/30 39/106/30 41/107/30 43/108/30 45/109/30 47/110/30 49/111/30 51/112/30 53/113/30 55/114/30
